<?xml version="1.0" encoding="utf-8"?>
<!-- Generator: Adobe Illustrator 26.0.1, SVG Export Plug-In . SVG Version: 6.00 Build 0)  -->
<svg version="1.1" id="Ebene_1" xmlns="http://www.w3.org/2000/svg" xmlns:xlink="http://www.w3.org/1999/xlink" x="0px" y="0px"
	 viewBox="0 0 24 24" width="100%" height="100%" style="enable-background:new 0 0 24 24;" xml:space="preserve">
<style type="text/css">
	.st0{fill:#F0F0F0;}
	.st1{fill:#D80027;}
	.st2{fill:#0052B4;}
</style>
<g transform="translate(.5 .5)">
	<circle class="st0" cx="11.5" cy="11.5" r="12"/>
	<path class="st1" d="M11,11.5h12.5c0-1.1-0.1-2.1-0.4-3.1H11V11.5z M11,5.2h10.8C21,4,20.1,3,19,2.1h-8V5.2z M11.5,23.5
		c2.8,0,5.4-1,7.5-2.6H4C6.1,22.5,8.7,23.5,11.5,23.5z M1.3,17.8h20.5c0.6-1,1-2,1.3-3.1H-0.1C0.2,15.7,0.7,16.8,1.3,17.8z"/>
	<path class="st2" d="M5.1,1.4h1.1l-1,0.7l0.4,1.2l-1-0.7l-1,0.7l0.3-1C2.9,3,2.1,3.9,1.5,4.9h0.4L1.2,5.3C1.1,5.5,1,5.7,0.9,5.9
		l0.3,1L0.6,6.4C0.5,6.7,0.4,7,0.2,7.3l0.3,1h1.3l-1,0.7l0.4,1.2l-1-0.7L-0.4,10c-0.1,0.5-0.1,1-0.1,1.5h12c0-6.6,0-7.4,0-12
		C9.1-0.5,6.9,0.2,5.1,1.4z M5.5,10.3l-1-0.7l-1,0.7l0.4-1.2l-1-0.7h1.3l0.4-1.2l0.4,1.2h1.3l-1,0.7L5.5,10.3z M5.1,5.6l0.4,1.2
		l-1-0.7l-1,0.7l0.4-1.2l-1-0.7h1.3l0.4-1.2l0.4,1.2h1.3L5.1,5.6z M9.8,10.3l-1-0.7l-1,0.7l0.4-1.2l-1-0.7h1.3l0.4-1.2l0.4,1.2h1.3
		l-1,0.7L9.8,10.3z M9.4,5.6l0.4,1.2l-1-0.7l-1,0.7l0.4-1.2l-1-0.7h1.3l0.4-1.2l0.4,1.2h1.3L9.4,5.6z M9.4,2.1l0.4,1.2l-1-0.7
		l-1,0.7l0.4-1.2l-1-0.7h1.3l0.4-1.2l0.4,1.2h1.3L9.4,2.1z"/>
</g>
</svg>
